<svg width="77" height="23" viewBox="0 0 77 23" fill="none" xmlns="http://www.w3.org/2000/svg">
<path d="M24.1882 21.6892L19.5387 21.6214L19.7441 7.52293L13.9893 21.5406L10.1497 21.4846L4.80308 7.48522L4.60026 21.4037L0.100733 21.3382L0.410659 0.0704276L6.59 0.160477L12.23 14.6142L17.9888 0.326586L24.4981 0.421444L24.1882 21.6892ZM31.3465 12.5525L37.3159 12.6395C37.2858 11.959 37.0244 11.3651 36.5318 10.8579C36.0591 10.351 35.3328 10.0903 34.3529 10.0761C33.473 10.0632 32.7693 10.313 32.2418 10.8254C31.7143 11.3378 31.4158 11.9135 31.3465 12.5525ZM37.5895 16.5139L41.3833 17.6493C40.9833 19.0236 40.1767 20.152 38.9637 21.0344C37.751 21.8968 36.2448 22.3149 34.445 22.2887C32.2852 22.2572 30.4559 21.5105 28.957 20.0485C27.4782 18.5868 26.7564 16.6461 26.7916 14.2263C26.8255 11.9066 27.5829 10.0274 29.064 8.58884C30.5651 7.15056 32.3256 6.44614 34.3454 6.47557C36.6651 6.50938 38.475 7.21582 39.7751 8.59491C41.0954 9.9543 41.7381 11.8339 41.7031 14.2336C41.692 14.9935 41.6552 15.463 41.5926 15.6421L31.2137 15.4909C31.2417 16.3114 31.5816 17.0064 32.2334 17.576C32.8855 18.1255 33.6615 18.4069 34.5614 18.42C36.1012 18.4424 37.1106 17.8071 37.5895 16.5139ZM58.9033 0.472769L58.6257 19.5207C58.6126 20.4207 58.6396 21.3111 58.7068 22.1922L54.3272 22.1284C54.2542 21.6473 54.2212 21.1667 54.2282 20.6868C53.8607 21.2015 53.3145 21.6236 52.5896 21.9531C51.885 22.2628 51.0928 22.4113 50.2129 22.3985C48.0931 22.3676 46.3439 21.612 44.9653 20.1318C43.5871 18.6315 42.9145 16.7415 42.9477 14.4618C42.9804 12.222 43.6873 10.3821 45.0684 8.94208C46.4498 7.48205 48.1904 6.76734 50.2902 6.79794C52.33 6.82766 53.6624 7.35714 54.2875 8.38635L54.4037 0.407199L58.9033 0.472769ZM48.5365 11.8429C47.8872 12.4735 47.554 13.3788 47.5368 14.5586C47.5196 15.7385 47.8262 16.6631 48.4565 17.3323C49.1071 17.9819 49.9024 18.3135 50.8423 18.3272C51.7822 18.3409 52.5767 18.0324 53.226 17.4018C53.8955 16.7515 54.2389 15.8364 54.2561 14.6566C54.2733 13.4767 53.9566 12.562 53.306 11.9124C52.6754 11.2632 51.8901 10.9317 50.9502 10.918C50.0103 10.9043 49.2058 11.2126 48.5365 11.8429ZM66.6552 22.308L62.0957 22.2416L62.313 7.33318L66.8725 7.39962L66.6552 22.308ZM62.7418 4.66915C62.2295 4.14162 61.9787 3.5079 61.9895 2.76798C62.0002 2.02806 62.2694 1.40191 62.7969 0.889548C63.3244 0.37718 63.9482 0.126241 64.6681 0.136732C65.408 0.147515 66.0341 0.416667 66.5465 0.944189C67.0789 1.472 67.3397 2.10587 67.3289 2.84579C67.3181 3.58571 67.039 4.21171 66.4914 4.72379C65.9639 5.23616 65.3302 5.48695 64.5903 5.47617C63.8703 5.46568 63.2542 5.19667 62.7418 4.66915Z" fill="#0A1B32"/>
<path d="M70.7787 21.7381C70.1878 21.1094 69.8984 20.3751 69.9107 19.5352C69.9229 18.6953 70.2334 17.9797 70.842 17.3885C71.4507 16.7973 72.175 16.5079 73.0149 16.5201C73.8548 16.5323 74.5704 16.8428 75.1616 17.4515C75.7728 18.0604 76.0723 18.7849 76.06 19.6248C76.0481 20.4447 75.7276 21.1601 75.0986 21.771C74.4897 22.3822 73.7652 22.6817 72.9253 22.6694C72.0854 22.6572 71.3699 22.3467 70.7787 21.7381Z" fill="#33A2E0"/>
</svg>
